<mxfile host="Electron" modified="2023-06-18T04:07:21.031Z" agent="Mozilla/5.0 (Macintosh; Intel Mac OS X 10_15_7) AppleWebKit/537.36 (KHTML, like Gecko) draw.io/21.4.0 Chrome/112.0.5615.204 Electron/24.5.1 Safari/537.36" etag="u0WcaS9o5nBtq4BXbEgz" version="21.4.0" type="device">
  <diagram name="PÃ¡gina-1" id="QMMTvA-ff1KPI4nAfXoj">
    <mxGraphModel dx="794" dy="574" grid="1" gridSize="10" guides="1" tooltips="1" connect="1" arrows="1" fold="1" page="1" pageScale="1" pageWidth="827" pageHeight="1169" math="0" shadow="0">
      <root>
        <mxCell id="0" />
        <mxCell id="1" parent="0" />
        <mxCell id="y_eFeIlm2bV7ixM_kg36-3" style="edgeStyle=orthogonalEdgeStyle;rounded=0;orthogonalLoop=1;jettySize=auto;html=1;entryX=0;entryY=0.5;entryDx=0;entryDy=0;" edge="1" parent="1" source="y_eFeIlm2bV7ixM_kg36-1" target="y_eFeIlm2bV7ixM_kg36-2">
          <mxGeometry relative="1" as="geometry" />
        </mxCell>
        <mxCell id="y_eFeIlm2bV7ixM_kg36-1" value="Gerador" style="rounded=1;whiteSpace=wrap;html=1;" vertex="1" parent="1">
          <mxGeometry x="140" y="140" width="120" height="60" as="geometry" />
        </mxCell>
        <mxCell id="y_eFeIlm2bV7ixM_kg36-6" style="edgeStyle=orthogonalEdgeStyle;rounded=0;orthogonalLoop=1;jettySize=auto;html=1;exitX=0.5;exitY=1;exitDx=0;exitDy=0;entryX=0;entryY=0.5;entryDx=0;entryDy=0;" edge="1" parent="1" source="y_eFeIlm2bV7ixM_kg36-2" target="y_eFeIlm2bV7ixM_kg36-5">
          <mxGeometry relative="1" as="geometry" />
        </mxCell>
        <mxCell id="y_eFeIlm2bV7ixM_kg36-7" style="edgeStyle=orthogonalEdgeStyle;rounded=0;orthogonalLoop=1;jettySize=auto;html=1;exitX=0.5;exitY=0;exitDx=0;exitDy=0;entryX=0;entryY=0.5;entryDx=0;entryDy=0;" edge="1" parent="1" source="y_eFeIlm2bV7ixM_kg36-2" target="y_eFeIlm2bV7ixM_kg36-4">
          <mxGeometry relative="1" as="geometry" />
        </mxCell>
        <mxCell id="y_eFeIlm2bV7ixM_kg36-2" value="Dados de&lt;br&gt;Treinamento" style="rhombus;whiteSpace=wrap;html=1;" vertex="1" parent="1">
          <mxGeometry x="350" y="130" width="110" height="80" as="geometry" />
        </mxCell>
        <mxCell id="y_eFeIlm2bV7ixM_kg36-4" value="Estimador EM" style="rounded=1;whiteSpace=wrap;html=1;" vertex="1" parent="1">
          <mxGeometry x="530" y="60" width="120" height="60" as="geometry" />
        </mxCell>
        <mxCell id="y_eFeIlm2bV7ixM_kg36-5" value="Estimador SL" style="rounded=1;whiteSpace=wrap;html=1;" vertex="1" parent="1">
          <mxGeometry x="530" y="230" width="120" height="60" as="geometry" />
        </mxCell>
      </root>
    </mxGraphModel>
  </diagram>
</mxfile>
